<svg xmlns="http://www.w3.org/2000/svg" viewBox="0 0 200 200">
  <g fill="#1a1a1a" transform="translate(10,55) scale(0.9)">
    <!-- Skull -->
    <path d="M2,28 C2,18 10,10 22,8 C34,6 44,10 50,18 L54,16 L52,22 L56,24 L52,27 L50,34 C46,40 36,42 26,40 L20,44 L18,38 L10,40 L12,34 C6,32 2,30 2,28 Z"/>
    <circle cx="26" cy="20" r="3.5" fill="#ffffff"/>
    <path d="M20,30 L22,26 L24,31 L26,27 L28,32 L30,28 L32,33" stroke="#ffffff" stroke-width="1.5" fill="none"/>
    <path d="M18,40 L20,45 L23,40 L25,46 L28,41" stroke="#ffffff" stroke-width="1.5" fill="none"/>

    <path d="M50,20 C70,15 90,16 108,22 L108,30 C90,25 70,24 52,28 Z"/>

    <g>
      <rect x="60" y="14" width="4" height="8" rx="2"/>
      <rect x="70" y="12" width="4" height="8" rx="2"/>
      <rect x="80" y="11" width="4" height="8" rx="2"/>
      <rect x="90" y="11" width="4" height="8" rx="2"/>
      <rect x="100" y="12" width="4" height="8" rx="2"/>
    </g>

    <path d="M106,20 C120,16 132,18 138,26 C142,32 140,40 132,44 L108,40 Z"/>
    <g stroke="#ffffff" stroke-width="1.2" fill="none">
      <path d="M112,22 L110,38"/>
      <path d="M118,20 L116,40"/>
      <path d="M124,20 L122,41"/>
      <path d="M130,22 L128,42"/>
    </g>

    <path d="M132,26 C150,24 168,26 182,32 C186,34 188,36 186,38 C170,34 152,33 134,36 Z"/>
    <g>
      <rect x="140" y="24" width="3" height="6" rx="1.5"/>
      <rect x="150" y="23" width="3" height="6" rx="1.5"/>
      <rect x="160" y="24" width="3" height="6" rx="1.5"/>
      <rect x="170" y="26" width="2.5" height="5" rx="1.2"/>
      <rect x="178" y="29" width="2" height="4" rx="1"/>
    </g>

    <path d="M108,32 C104,34 100,38 98,44 C100,45 104,44 106,40 C108,42 110,44 112,42 C110,38 110,34 108,32 Z"/>

    <path d="M100,40 C98,48 96,58 92,66 C90,72 88,78 84,82 L90,84 L94,80 C98,74 100,66 102,58 C104,52 106,46 106,42 Z"/>
    <path d="M84,82 L80,86 L82,90 L86,88 L88,92 L91,88 L93,90 L95,86 L90,84 Z"/>

    <path d="M116,42 C118,50 120,60 122,68 C124,74 124,80 122,86 L128,86 L130,80 C130,72 128,62 126,52 C125,48 124,44 122,41 Z"/>
    <path d="M122,86 L119,90 L122,94 L126,91 L129,95 L132,91 L134,93 L136,89 L130,86 Z"/>
  </g>
</svg>
