<svg xmlns="http://www.w3.org/2000/svg" viewBox="0 0 200 200">
  <defs>
    <linearGradient id="leafGrad" x1="0%" y1="0%" x2="100%" y2="100%">
      <stop offset="0%" stop-color="#e8842c"/>
      <stop offset="45%" stop-color="#d9531f"/>
      <stop offset="100%" stop-color="#b8341a"/>
    </linearGradient>
  </defs>
  <rect width="200" height="200" rx="36" fill="#241f1a"/>
  <g transform="translate(100,104)">
    <path d="
      M0,-72
      L10,-38
      L38,-52
      L28,-22
      L62,-30
      L38,-6
      L68,6
      L36,14
      L54,38
      L22,26
      L24,58
      L6,34
      L0,60
      L-6,34
      L-24,58
      L-22,26
      L-54,38
      L-36,14
      L-68,6
      L-38,-6
      L-62,-30
      L-28,-22
      L-38,-52
      L-10,-38
      Z"
      fill="url(#leafGrad)" stroke="#7a2410" stroke-width="2" stroke-linejoin="round"/>
    <!-- stem -->
    <path d="M0,60 C2,72 -2,82 4,96" fill="none" stroke="#7a2410" stroke-width="5" stroke-linecap="round"/>
    <!-- veins -->
    <g stroke="#7a2410" stroke-width="1.6" opacity="0.75" fill="none">
      <path d="M0,-60 L0,50"/>
      <path d="M0,-10 L-40,20"/>
      <path d="M0,-10 L40,20"/>
      <path d="M0,-30 L-24,-8"/>
      <path d="M0,-30 L24,-8"/>
    </g>
  </g>
</svg>
