<svg xmlns="http://www.w3.org/2000/svg" viewBox="0 0 200 200">
  <!-- Transparent background -->
  <g transform="translate(24,48)">
    <path d="
      M10,55
      C8,40 18,26 40,18
      C58,10 90,8 112,16
      C128,22 140,32 148,44
      C150,48 150,54 146,58
      L150,66
      C152,70 150,74 146,75
      L138,76
      L136,86
      C135,90 131,92 128,90
      L122,84
      C110,90 92,92 76,90
      C74,98 68,104 60,104
      C52,104 46,98 44,90
      C30,86 16,76 10,60
      Z"
      fill="#ffffff" stroke="#2a2a2a" stroke-width="2.5"/>
    <circle cx="88" cy="46" r="9" fill="#2a2a2a"/>
    <ellipse cx="132" cy="40" rx="6" ry="4" fill="#2a2a2a" transform="rotate(-20 132 40)"/>
    <path d="M30,68 L36,80 L42,68 L48,82 L54,68 L60,84 L66,68 L74,86 L82,70 L90,88"
      fill="none" stroke="#2a2a2a" stroke-width="3" stroke-linecap="round"/>
    <path d="M40,54 L44,44 L50,54 L56,42 L64,54 L70,42 L78,54 L86,44 L94,54"
      fill="none" stroke="#2a2a2a" stroke-width="3" stroke-linecap="round"/>
    <path d="M60,20 L64,32 M100,18 L96,30 M120,26 L116,36" stroke="#8a8a86" stroke-width="1.5" opacity="0.7"/>
  </g>
</svg>
